<svg id="Layer_3" viewBox="0 0 512 512" xmlns="http://www.w3.org/2000/svg" data-name="Layer 3"><path d="m152.46875 314.4794922h-85.8896484c-9.9248047 0-18 8.074707-18 18v110.1806641c0 9.925293 8.0751953 18 18 18h85.8896484c9.9248047 0 18-8.074707 18-18v-110.1806641c0-9.925293-8.0751953-18-18-18zm6 128.180664c0 3.3085938-2.6914062 6-6 6h-85.8896484c-3.3085938 0-6-2.6914062-6-6v-110.1806641c0-3.3085938 2.6914062-6 6-6h85.8896484c3.3085938 0 6 2.6914062 6 6z"/><path d="m194.2021484 93.2353516c11 5.6411133 15.0634766 9.7045898 20.7041016 20.7041016 1.0273438 2.0029297 3.0878906 3.262207 5.3388672 3.262207s4.3115234-1.2592773 5.3388672-3.262207c5.640625-10.9995117 9.7041016-15.0629883 20.7050781-20.7041016 4.2919693-2.0783225 4.3024273-8.5985237-.0001765-10.6777234-10.9998235-5.640636-15.0633001-9.7041125-20.7049017-20.7041125-1.0273438-2.0029297-3.0878906-3.262207-5.3388672-3.262207s-4.3115234 1.2592773-5.3388672 3.262207c-5.6416016 10.9995117-9.7050781 15.0629883-20.7041016 20.7041016-4.2919695 2.0783225-4.3024272 8.5985237 0 10.6777344zm26.0429688-16.8374024c3.2578125 4.6782227 6.8203125 8.2407227 11.4980469 11.4985352-4.6777344 3.2578125-8.2402344 6.8203125-11.4980469 11.4980469-3.2578125-4.6772461-6.8203125-8.2402344-11.4980469-11.4980469 4.6777344-3.2578125 8.2402344-6.8203125 11.4980469-11.4985352z"/><path d="m487.8369141 209.9580078c-10.6519983-45.3969238-42.6397558-54.284161-79.3691406-72.8945312v-8.5897827c6.9794922-2.4790039 12-9.1306763 12-16.9497681v-18.2099609c0-1.4003906-.4902344-2.7568359-1.3847656-3.8344727l-15.5654297-18.7351074v-44.3342286c0-8.4907227-6.0224609-15.9047852-14.3212891-17.628418-29.1787109-6.0595703-58.7714844-6.0595703-87.9541016 0-8.2978516 1.7236328-14.3203125 9.1376953-14.3203125 17.628418v44.3342285l-15.5654297 18.7351074c-.8945312 1.0776367-1.3847656 2.434082-1.3847656 3.8344727v18.2099609c0 7.8190918 5.0205078 14.4707642 12 16.9497681v8.5897827c-36.7395301 18.6276519-68.5915481 27.426097-79.3320312 72.7346802-4.8378168-3.252609-10.749136-4.8652824-16.7045898-4.6511841.6677246-1.8800049 1.050293-3.8938599 1.050293-6v-22.034668c0-2.1061401-.3825684-4.1199951-1.050293-6h4.112793c9.9248047 0 18-8.074707 18-18v-17.1132812c0-4.8071289-1.8720703-9.3271484-5.2714844-12.7275391 0 0 0-.0004883-.0009766-.0004883l-39.9697266-39.9702148c-3.3994141-3.3999023-7.9199219-5.2724609-12.7285156-5.2724609h-29.3481445c3.6569824-2.7709351 7.9667969-5.3265381 13.371582-8.0981445 4.2899576-2.0806092 4.3043618-8.5965849-.0001794-10.6777256-16.2908362-8.3545009-22.670719-14.7338955-31.0261877-31.0263759-2.0792832-4.2922626-8.5983358-4.3024907-10.6777232.0006648-8.3545034 16.2913274-14.7334096 22.6707219-31.0263784 31.0257024-4.2888441 2.0750246-4.304418 8.6003884.0001815 10.6777193 5.4046037 2.7718046 9.7144181 5.3274076 13.3714005 8.0981596h-19.7231445c-7.3283691 0-13.6369629 4.4087524-16.4421387 10.7080078h-16.576416c-9.9248047 0-18 8.074707-18 18v3.7416992c0 9.925293 8.0751953 18 18 18h15.4985352c.7496338 3.24823 2.3762207 6.2352905 4.7924805 8.6518555l1.9672852 1.9673462c-6.8885498 9.7410889-14.5163574 19.0228882-22.7250977 27.6425171-5.4042969 5.6762695-5.8359375 14.6508789-1.0029297 20.8754883 5.1567294 6.6470944 14.6676971 8.1450877 21.5761692 3.5405188 10.5775173-7.0297156 20.8850124-15.0054846 30.7041042-23.7537756 3.1230469 2.3960571 6.9160156 3.7103271 10.9189453 3.7103271h3.4926758c-.6677246 1.8800049-1.050293 3.8938599-1.050293 6v22.034668c0 2.1061401.3825684 4.1199951 1.050293 6-17.4088449-.6785037-30.5343245 13.9696558-29.0792875 31.1246342-.0003024 24.4715572-9.0608492 47.9246822-25.5129977 66.03894-18.4619141 20.328125-28.6298828 46.6464844-28.6298828 74.1069336v67.1230469c0 29.7758789 24.2246094 54 54 54h103.0478516c16.6608887 0 32.154541-7.645752 42.2980957-20.4307861 10.0241699 12.5272217 25.4492188 20.4302979 42.2331543 20.4302979h199.28125c25.2470703 0 47.4355469-17.8686523 52.7587891-42.4873047 18.8407005-77.3697031 8.3997788-165.7668846-9.7822266-245.0947266zm-188.9150391-183.5478516c0-2.8334961 2.0019531-5.3061523 4.7607422-5.8793945 27.5644531-5.7236328 55.5146484-5.7236328 83.0732422 0 2.7597656.5732422 4.7617188 3.0458984 4.7617188 5.8793945v40.5019531h-12.7285156v-30.487793c0-3.3134766-2.6865234-6-6-6s-6 2.6865234-6 6v30.487793h-15.5693359v-30.487793c0-3.3134766-2.6865234-6-6-6s-6 2.6865234-6 6v30.487793h-15.5693359v-30.487793c0-3.3134766-2.6865234-6-6-6s-6 2.6865234-6 6v30.487793h-12.7285156v-40.5019531zm-16.9501953 69.0712891 13.765625-16.5693359h98.9648438l13.765625 16.5693359v16.0424805c0 3.3085938-2.6914062 6-6 6h-114.4960938c-3.3085938 0-6-2.6914062-6-6zm-184.2363281-52.2744141c5.8554688 9.3496094 12.0351562 15.5297852 21.3847656 21.3842773-9.3564042 5.7872281-15.8577984 12.4981599-21.3847656 21.3842773-5.5270773-8.887352-12.0258119-15.5956083-21.3837891-21.3842773 9.3496094-5.8544922 15.5292969-12.034668 21.3837891-21.3842773zm-81.7353516 67.2709961v-3.7416992c0-3.3085938 2.6914062-6 6-6h15.0185547v15.7416992h-15.0185547c-3.3085938 0-6-2.6914062-6-6zm19.4638672 70.6835938c-3.9899385 2.5834701-8.4355294-2.6514504-5.2401512-6.1465616 8.1366356-8.5443564 15.7303856-17.7089072 22.6385887-27.3138877l11.3173828 11.3178711c-9.203125 8.1469727-18.8388672 15.5786133-28.7158203 22.1425781zm44.0224609-23.8066406c-5.6098143-5.609511-23.2623567-23.2642135-28.7099578-28.7099536-1.1337922-1.1337964-1.7578156-2.6406323-1.7578156-4.2431714v-28.3735352c-.0134343-3.2463367 2.6806218-6.0184087 6.0000133-5.9999772-.0000133-.0000228 31.0331899-.0000228 31.0331899-.0000228 1.5279843 2.2435302 3.0770027 4.8178944 4.6953113 7.7978518.5572139 1.0271738 1.1084152 2.0800449 1.6494134 3.1298836 1.026369 2.0024405 3.0878924 3.2622061 5.338869 3.2622061 4.0963712-.0022431 5.3805664-3.2776149 6.9847284-6.3852586 1.6146569-2.9731448 3.1709912-5.562527 4.6988654-7.8046828h40.6582031c1.6025391 0 3.109375.6240234 4.2431641 1.7573242l39.9697266 39.9702148c1.1337891 1.1337891 1.7578125 2.640625 1.7578125 4.2431641v17.1132812c0 3.3085938-2.6914062 6-6 6-13.9638983-.0010398-70.8511045.0007495-85.8759849-.0000023.0000084.0000023-20.4423744.0000023-20.4423744.0000023-1.6025391 0-3.109375-.6240234-4.2431641-1.7573242zm18.6855469 41.7919922v-22.034668c0-3.3085938 2.6914062-6 6-6h64.8134766c3.3085938 0 6 2.6914062 6 6v22.034668c0 3.3085938-2.6914062 6-6 6h-8.5625v-17.0175781c0-3.3134766-2.6865234-6-6-6s-6 2.6865234-6 6v17.0175781h-23.6894531v-17.0175781c0-3.3134766-2.6865234-6-6-6s-6 2.6865234-6 6v17.0175781h-8.5615234c-3.3085938 0-6-2.6914062-6-6zm98.3222656 266.9301757c-7.6845703 12.078125-21.0029297 19.4633789-35.4462891 19.4633789h-103.0478515c-23.1591797 0-42-18.8413086-42-42v-67.1230469c0-24.4711914 9.0605469-47.9243164 25.5126953-66.0390625 19.2725027-21.1388252 29.3683996-48.9123356 28.6297593-77.4751249.0001235-8.6879611 7.0684828-15.7563204 15.7569594-15.7563204 12.0922354.0039225 69.8362249-.0028273 83.0859365.0000086.000001-.0000086 18.3056651-.0000086 18.3056651-.0000086 4.9057617 0 9.5192871 2.3125 12.4812012 6.1490479-8.442962 41.2533693-17.1657806 91.9683942-17.3328715 136.4173717-.4405689 30.8407378 5.3458996 73.8964842 10.3804122 95.3392981.831597 3.7956516 2.0854969 7.4818719 3.6743831 11.0244582zm289.3964844-13.5605468c-4.1376953 19.1352539-21.3935547 33.0234375-41.0302734 33.0234375h-199.28125c-15.8774414 0-30.1945801-9.0817871-37.2832031-22.6730957-1.7060914-3.2625578-2.9518699-6.7576091-3.7470684-10.3503419-5.5585728-23.5417426-11.4157925-70.4625872-9.9487475-102.5945854 1.4230783-46.8725574 12.7944916-105.6174739 19.7270778-137.4112698 4.428699-20.3364298 17.6679568-37.2998087 36.3251834-46.5415079l39.9824219-19.8056641c2.0439453-1.012207 3.3369141-3.0957031 3.3369141-5.3764648v-11.2631836h102.4960938v11.2631836c0 2.2807617 1.2929688 4.3642578 3.3369141 5.3764648l39.9824219 19.8056641c18.6572266 9.2416992 31.8964844 26.2050781 36.3251953 46.5415039 16.631665 73.3109182 28.8936237 161.9421398 9.7783203 240.0058594z"/><path d="m427.0976562 364.6992188c-13.8476562 0-26.2402344-8.2578125-31.5722656-21.0380859l-59.9306641-143.6635742c-9.4446854-24.1843774-40.1568425-35.6810578-63.1573968-23.6156494.0001703-.0005615-13.3513922 6.613208-13.3513922 6.613208-13.4541016 6.6640625-23.0009766 18.8950195-26.1923828 33.5571289-16.0587354 71.0045835-28.2677722 156.5620998-9.7715236 231.9481962 2.2578518 10.453171 11.7031643 18.0395968 22.4570705 18.0395968h199.28125c10.7539062 0 20.2001953-7.5869141 22.4589844-18.0400391 2.2011719-10.1777344 4.0693359-20.6977539 5.5527344-31.2680664 4.2432304-27.1480052-18.320923-52.9725408-45.7744141-52.5327148zm33.8916016 50.8642578c-1.4433594 10.2807617-3.2597656 20.5087891-5.3984375 30.4008789-1.0742188 4.9692383-5.5869141 8.5756836-10.7304688 8.5756836h-199.28125c-5.1435547 0-9.65625-3.6064453-10.7304688-8.5751953-18.1125222-73.765906-5.8985068-157.4340431 9.7711898-226.859889 2.4104508-11.0785876 9.6252945-20.3207751 19.7922867-25.3569079l13.3515625-6.6137695c17.2247652-8.8892753 39.6072041-.5129541 46.7567165 17.483689.0001194-.0002905 59.9307835 143.6632837 59.9307835 143.6632837 7.2011719 17.2631836 23.9414062 28.4179688 42.6464844 28.4179688 9.9189453 0 19.3408203 4.2939453 25.8505859 11.78125 6.4794922 7.4526367 9.4101562 17.3242188 8.0410156 27.0830078z"/><path d="m405.4716797 322.0068359c16.1219016 37.251559 71.6446001 23.2955357 67.5428877-17.3742306-4.1620283-33.1985234-10.7089033-66.2224491-15.4686689-88.079871-3.1904297-14.6611328-12.7363281-26.8925781-26.1914062-33.5576172l-15.0429688-7.4516602c-16.2665959-8.3286998-37.5341897-2.7395537-47.5086685 12.6047954-6.9425034 10.3200093-8.2891831 23.3590718-3.6016831 34.8800679l40.2705078 98.9785156zm-26.7128906-127.1606445c6.7635518-10.4985055 21.1450155-14.1780763 32.2266475-8.5496284-.000085-.0001763 15.0428838 7.4514838 15.0428838 7.4514838 10.1679688 5.0371094 17.3818359 14.2788086 19.7929688 25.3564453 4.7068082 21.6185433 11.1797454 54.2638466 15.2871092 87.0214844 1.872153 13.2486426-9.2022096 25.7470306-22.5812485 25.5667003-9.5861617.3168276-18.3364481-5.2934242-21.9402179-14.2083371-.0000178.0000353-40.2705256-98.9784804-40.2705256-98.9784804-3.2275391-7.9316406-2.3369141-16.5551758 2.4423828-23.659668z"/><path d="m353.4501953 338.4458008c-4.8261719-2.4749146-8.3164062-4.6466064-11.190918-7.2329102 6.2936143-24.6944059-10.4421054-50.5882476-34.6542969-55.62323 3.5888995-2.4133292 3.1726464-8.3431274-.7653301-10.2048717-10.9998066-5.6411366-15.0632832-9.7046132-20.7039082-20.7041249-2.0793015-4.2950063-8.5981687-4.301772-10.6777247.0001727-5.6406346 10.9988507-9.7041112 15.0623273-20.7050878 20.7039288-4.2920056 2.0760081-4.3020525 8.6001747.0001765 10.6777209 5.9876164 3.0709363 9.9146184 5.681532 13.1651067 9.1904432-40.5323895 35.6358216.2452871 98.9284373 49.5256348 76.6957397 1.5437012 2.2008667 3.0214844 4.7532349 4.6245117 7.8789673 2.0823095 4.2971863 8.5974802 4.3001964 10.677728-.0001695 5.6396548-10.998854 9.7031314-15.0623305 20.704108-20.7039321 4.2936602-2.0744218 4.3004952-8.6015654 0-10.6777344zm-72.6533203-79.2207031c3.2578125 4.6777344 6.8203125 8.2407227 11.4980469 11.4985352-4.7048119 3.3030772-8.2512045 6.8091122-11.5029297 11.4918213-3.2575684-4.675293-6.8178711-8.2351074-11.4941406-11.4918213 4.6787109-3.2578125 8.2412109-6.8208008 11.4990234-11.4985352zm16.7128906 95.2734375c-30.9538339.0421997-45.7638917-38.6531849-22.8408203-59.2345581 1.1495812 2.8564662 3.6628061 5.229852 6.9615617 4.7066445 1.916368-.26829 3.6063094-1.4514565 4.5052352-3.20402.4422322-.8600923.8622557-1.6545742 1.3139646-2.4748539 1.3856545-2.5605066 3.1961852-5.4329243 4.8364261-7.4274898 18.6924018-3.0777456 36.6032833 10.6007572 38.9287109 28.9785156-2.8321507-2.4000761-7.5248263-1.465768-9.1474311 1.8990474-5.6416314 10.9993901-9.705108 15.0628667-20.7041314 20.7039799-3.0780716 1.4926752-4.2020877 5.6437668-2.3597582 8.4978242.8779054 1.5800507 2.6937723 2.3536413 4.220653 3.1567738 1.7641052.9503215 3.3163513 1.8605387 4.7045349 2.7648356-3.3457031 1.078125-6.8564453 1.6333008-10.4189453 1.6333008zm29.897461.7841796c-3.1544331-4.586102-6.9711494-8.3437147-11.4951172-11.5004883 4.5715194-3.1752785 8.2303246-6.7977791 11.4870605-11.484436 3.2413925 4.6673247 6.8002764 8.1887408 11.5061035 11.4868774-4.6787109 3.2583008-8.2402344 6.8203125-11.4980469 11.4980469z"/><path d="m425.8320312 62.2792969c16.2910156 8.3544922 22.6708984 14.7338867 31.0263672 31.0263672 1.0273438 2.0024414 3.0888672 3.2617188 5.3388672 3.2617188 2.2509766 0 4.3115234-1.2597656 5.3388672-3.262207 8.3544922-16.2915039 14.7333984-22.6708984 31.0263672-31.0258789 4.2894007-2.0778373 4.30439-8.598472-.0001805-10.6777225-16.2927883-8.3545041-22.6716945-14.7338986-31.0261867-31.0254025-1.0273438-2.0024414-3.0878906-3.262207-5.3388672-3.262207-2.25 0-4.3115234 1.2592773-5.3388672 3.2617188-8.3554688 16.2929688-14.7353516 22.671875-31.0263672 31.0258789-2.0019531 1.0268555-3.2617188 3.0883789-3.2617188 5.3388672s1.2597656 4.3120117 3.2617188 5.3388672zm36.3652344-26.7226563c5.8544922 9.3496094 12.0341797 15.5292969 21.3837891 21.3837891-9.3496094 5.8544922-15.5292969 12.034668-21.3837891 21.3842773-5.8554688-9.3496094-12.0351562-15.5297852-21.3837891-21.3842773 9.3486328-5.8540039 15.5283203-12.0341797 21.3837891-21.3837891z"/></svg>