<svg height="512" viewBox="0 0 64 64" width="512" xmlns="http://www.w3.org/2000/svg"><g id="Icons"><g><path d="m7.5 17c0 .827.673 1.5 1.5 1.5h1v-1h-1c-.275 0-.5-.225-.5-.5v-7c0-.827.673-1.5 1.5-1.5s1.5.673 1.5 1.5v40c0 1.379 1.121 2.5 2.5 2.5h20v-1h-20c-.827 0-1.5-.673-1.5-1.5v-40c0-.563-.187-1.082-.501-1.5h30.001c.827 0 1.5.673 1.5 1.5v6h1v-6c0-1.379-1.121-2.5-2.5-2.5h-32c-1.379 0-2.5 1.121-2.5 2.5z"/><path d="m35.937 45.171 9.063-7.25 9.062 7.25c.65.52 1.592.411 2.107-.233.511-.637.425-1.58-.233-2.109l-10-7.998c-.55-.442-1.32-.443-1.874-.001l-10.001 8c-.645.518-.749 1.463-.233 2.107.529.658 1.472.745 2.109.234zm-1.25-1.562 10-7.999c.182-.145.444-.145.624 0l10 7.999c.216.174.253.485.078.702-.171.216-.483.253-.702.078l-9.375-7.5c-.181-.144-.44-.147-.625 0l-9.377 7.501c-.212.17-.525.14-.701-.079-.172-.214-.136-.53.078-.702z"/><path d="m46.153 32.931c1.997-2.394 5.347-6.803 5.347-9.431 0-3.584-2.916-6.5-6.5-6.5s-6.5 2.916-6.5 6.5c0 2.628 3.35 7.037 5.351 9.435.601.706 1.685.72 2.302-.004zm-1.539-.641c-3.25-3.896-5.114-7.101-5.114-8.79 0-3.032 2.468-5.5 5.5-5.5s5.5 2.468 5.5 5.5c0 1.689-1.864 4.894-5.11 8.786-.203.236-.58.233-.776.004z"/><path d="m49 23.5c0-2.206-1.794-4-4-4s-4 1.794-4 4 1.794 4 4 4 4-1.794 4-4zm-4 3c-1.654 0-3-1.346-3-3s1.346-3 3-3 3 1.346 3 3-1.346 3-3 3z"/><path d="m48.5 54v-5c0-.827-.673-1.5-1.5-1.5h-4c-.827 0-1.5.673-1.5 1.5v5h1v-5c0-.275.225-.5.5-.5h4c.275 0 .5.225.5.5v5z"/><path d="m45 46c1.379 0 2.5-1.121 2.5-2.5s-1.121-2.5-2.5-2.5-2.5 1.121-2.5 2.5 1.121 2.5 2.5 2.5zm0-4c.827 0 1.5.673 1.5 1.5s-.673 1.5-1.5 1.5-1.5-.673-1.5-1.5.673-1.5 1.5-1.5z"/><path d="m37 56.5h16c.827 0 1.5-.673 1.5-1.5v-8.17h-1v8.17c0 .275-.225.5-.5.5h-16c-.275 0-.5-.225-.5-.5v-8.17h-1v8.17c0 .827.673 1.5 1.5 1.5z"/><path d="m16 13.5h12v1h-12z"/><path d="m16 43.5h12v1h-12z"/><path d="m16 19.5h12v1h-12z"/><path d="m16 23.5h6v1h-6z"/><path d="m29.646 26.354c.195.195.512.195.707 0l4-4-.707-.707-3.646 3.646-1.646-1.646-.707.707z"/><path d="m16 29.5h12v1h-12z"/><path d="m16 33.5h6v1h-6z"/><path d="m30.354 36.354 4-4-.707-.707-3.647 3.646-1.646-1.646-.707.707 2 2c.195.195.511.195.707 0z"/></g></g></svg>