<svg id="Layer_1" enable-background="new 0 0 75 75" viewBox="0 0 75 75" xmlns="http://www.w3.org/2000/svg"><g id="Scrub_Brush"><g><path d="m20.7188854 66.8984985c2.1657867 3.3805923 7.4118252 3.5058899 9.7919922.1982422 1.5140591 1.9374008 4.255003 2.7861328 6.8437481 1.824707.3876953-.1445313.5859375-.5766602.4414063-.9648438-.1445313-.3876953-.5761719-.5830078-.9648438-.4414063-.5166016.1923828-1.0380859.2949219-1.5488281.3046875-1.7949219.0708008-3.4707012-.9829102-4.10742-2.5361328-.272934-.6631622-1.1734753-.5903625-1.3994141.0273438-.5742188 1.5761719-2.1826172 2.659668-4.0039063 2.6953125-1.7460938.0556641-3.4208984-.9521484-4.078125-2.4560547-.1848068-.421402-.7076263-.5848694-1.0996094-.3266602-6.0078869 3.9478455-14.5214901-.2390594-13.8935547-7.0957031.2050781-2.2412109 1.4023438-4.2460938 3.3691406-5.6445313.3378906-.2402344.4169922-.7084961.1767578-1.0458984-.2412109-.3369141-.7080078-.4174805-1.0458984-.1767578-2.2949219 1.6323242-3.7509766 4.0854492-3.9941406 6.7304688-.705913 7.7051621 8.3609859 12.8425675 15.5126954 8.9072266z"/><path d="m56.7833366 19.5322876c-2.182415-3.2247105-7.5275192-2.70788-8.8867188 1.0166016-.1416016.3891602.0595703.8198242.4482422.9614258.3916016.1425781.8203125-.0595703.9619141-.4477539.4609375-1.2661133 1.7568359-2.1362305 3.2236328-2.1650391 1.4091797-.0307617 2.7558594.7636719 3.2841797 1.9731445.1876411.4278622.7122841.5794411 1.0996094.3266602 5.0104942-3.2941628 11.8959007.2966328 11.3916054 5.8007813-.1679688 1.831543-1.1464844 3.4707031-2.7568359 4.6157227-.5943604.4225769-.2936783 1.3613281.4355469 1.3613281.1503906 0 .3017578-.0449219.4335938-.1386719 1.9433594-1.3828125 3.1757813-3.4604492 3.3818359-5.7016602.5899657-6.4368668-6.925377-10.8526211-13.0166055-7.6025391z"/><path d="m15.0958385 48.725647-2.9365234 11.3901367c-.1035156.4008789.1386518.8100586.5390625.9130859.3946371.1032104.8086529-.1332359.9140625-.5390625l2.9365234-11.3901367c.1035156-.4008789-.1386719-.8100586-.5390625-.9130859-.4042968-.1054688-.8095703.1367187-.9140625.5390625z"/><path d="m62.1222038 61.0425415c.4091797-.0678711.6845703-.4545898.6171875-.862793l-1.8974609-11.3901367c-.0683594-.4086914-.4521484-.6850586-.8632813-.6166992-.4091797.0678711-.6845703.4545898-.6171875.862793l1.8974609 11.3901367c.0688439.4108734.4567109.6844597.8632813.6166992z"/><path d="m21.509901 49.9165649-.9482422 7.1152344c-.0596485.4478874.2877426.8491211.7441406.8491211.3701172 0 .6923828-.2739258.7421665-.6508789l.9482632-7.1152344c.0546875-.4106445-.2333984-.7875977-.6445313-.8427734-.4023436-.0546875-.7880858.2333984-.8417968.6445312z"/><path d="m28.860487 50.015686v7.1152344c0 .4140625.3359375.75.75.75s.75-.3359375.75-.75v-7.1152344c0-.4140625-.3359375-.75-.75-.75s-.75.3359375-.75.75z"/><path d="m37.4425163 49.265686c-.4140625 0-.75.3359375-.75.75v7.1152344c0 .4140625.3359375.75.75.75s.75-.3359375.75-.75v-7.1152344c0-.4140625-.3359375-.75-.75-.75z"/><path d="m46.0245476 57.1309204v-7.1152344c0-.4140625-.3359375-.75-.75-.75s-.75.3359375-.75.75v7.1152344c0 .4140625.3359375.75.75.75s.75-.3359375.75-.75z"/><path d="m53.6807976 57.8745728c.4101563-.0551758.6982422-.4321289.6435547-.8427734l-.9492188-7.1152344c-.0537109-.4111328-.4287109-.6987305-.8427734-.6445313-.4101563.0551758-.6982422.4321289-.6435547.8427734l.9492188 7.1152344c.0535888.4055901.4248313.6982651.8427734.6445313z"/><path d="m14.3663464 29.2822876 1.7714844.0795898c.3658009.0332546.762867-.2722359.7822266-.715332.0185547-.4140625-.3017578-.7641602-.7158203-.7827148l-1.7714844-.0795898c-.6025391-.0273438-1.0771484-.5209961-1.0810547-1.1245117-.0039063-.6206055.4990234-1.1308594 1.1191406-1.1376953l14.5712891-.1572266c.4140625-.0043945.7470703-.34375.7421875-.7583008-.0048828-.4140625-.3291016-.7680664-.7578125-.7416992l-14.5712891.1572266c-1.4443359.015625-2.6113281 1.2026367-2.6035156 2.6464844.0078124 1.4028319 1.1123046 2.5512694 2.5146484 2.6137694z"/><path d="m38.3136101 32.3213501c.7899323.8710976 2.1176262 1.0238457 3.0869141.3666992 2.9960938-2.0288086 4.7763672-4.0385742 5.2929688-5.9736328.3710938-1.3911133-.0371094-2.3032227-.2001953-2.5913086-4.2373047-10.6381845-10.0927734-13.7001963-11.5195313-14.309083l-2.1708985-4.6318359c-.1748047-.375-.6240234-.5385742-.9970684-.3608398-.375.1757813-.5361328.6225586-.3603516.9975586l2.2968731 4.9018555c.0869141.1855469.2460938.3276367.4404297.3925781.0634766.0214844 6.4365234 2.2749023 10.9384766 13.6186533.015625.0375977.0449219.0927734.0654297.1279297.0146484.0244141 1.4033203 2.5024414-4.6279297 6.5864258-.3642578.2460938-.8408203.190918-1.1337891-.1323242-1.2138672-1.3388672-.9755859-3.3652344.6894531-5.8608398.4026222-.6017666-.2052002-1.3753262-.8945313-1.1157227-.9853516.3813477-3.90625 1.0839844-5.5615234-.2241211-1.2529297-.9892578-1.6845684-2.9897461-1.2832031-5.9443359.0556641-.4106445-.2314453-.7885742-.6425762-.8442383-.4101563-.0561523-.7880859.2324219-.84375.6420898-.8999996 6.6303654 2.3014622 9.0955334 7.0595684 8.2519531-1.5302734 3.2050781-.4873047 5.1621093.3652344 6.102539z"/><path d="m21.6163464 22.7144165c.1425781.2270508.3857422.3510742.6357422.3510742.5815716 0 .9505272-.6457901.6337891-1.1489258-1.4550781-2.315918-.8535156-6.2529306-.8476563-6.2924814.055872-.3458757.0525646-.0390463-2.0361328-5.7666016-.1445313-.3886719-.5761719-.5839844-.9638672-.4423828-.3886719.144043-.5869141.5756836-.4423828.9638672l1.9326172 5.2104492c-.1181641.9130869-.4785157 4.6337901 1.0878906 7.125001z"/><path d="m43.6358757 65.7842407c0 1.3554688 1.1035156 2.4584961 2.4589844 2.4584961s2.4580078-1.1030273 2.4580078-2.4584961-1.1025391-2.4580078-2.4580078-2.4580078-2.4589844 1.1025391-2.4589844 2.4580078zm2.4589844-.9580078c.5283203 0 .9580078.4296875.9580078.9580078s-.4296875.9584961-.9580078.9584961-.9589844-.4301758-.9589844-.9584961.4306641-.9580078.9589844-.9580078z"/><path d="m54.4903679 70.2505493c1.4375 0 2.6074219-1.1699219 2.6074219-2.6079102 0-1.4384766-1.1699219-2.6083984-2.6074219-2.6083984-1.4384766 0-2.6083984 1.1699219-2.6083984 2.6083984 0 1.4379883 1.1699218 2.6079102 2.6083984 2.6079102zm0-3.7163086c.6103516 0 1.1074219.4970703 1.1074219 1.1083984 0 .6108398-.4970703 1.1079102-1.1074219 1.1079102-.6113281 0-1.1083984-.4970703-1.1083984-1.1079102 0-.6113281.4970703-1.1083984 1.1083984-1.1083984z"/><path d="m60.4737663 15.1192007c1.0126953-.8999023 1.1054688-2.456543.2060547-3.4697266-.9182281-1.0355825-2.4745789-1.0885201-3.4707031-.2070313-1.0136719.8999023-1.1064453 2.456543-.2060547 3.4707031.8995743 1.0117923 2.454216 1.1068889 3.4707031.2060548zm-1.5751953-2.7949219c.8463135.0500679 1.2180634 1.105011.5800781 1.6733398-.3964844.3496094-1.0029297.3134766-1.3544922-.0800781-.5676422-.640377-.0745506-1.6391515.7744141-1.5932617z"/><path d="m31.2183361 27.9074707c-1.0393753-1.1738663-2.8514442-1.2280178-3.93396-.0004272-1.0414352-1.1755486-2.8530655-1.2255497-3.9336548.0001221-1.1285553-1.2736931-3.0898895-1.1747055-4.0839844.1588135-.5019531.6733398-.6523438 1.5209961-.4130859 2.3256836l1.0292969 3.4697266c.3300781 1.1098633 1.3691406 1.8852539 2.5263672 1.8852539.6817627 0 1.3095093-.2650146 1.7938232-.7210083.8721313 1.7657967 3.4164715 2.0660744 4.5765991.2427368 1.1691875.812664 2.8459358.6080284 3.7108746-.753479 2.0765228 1.4423523 4.7210121-.5618896 4.0231934-2.9074097l-.8056641-2.7158203c-.5808181-1.9587556-3.09795-2.5632592-4.4898052-.984192zm-8.809021 6.3391724c-.4980469 0-.9462891-.3344727-1.0888672-.8125l-1.0292969-3.4697266c-.1025391-.3466797-.0380859-.7114258.1777344-1.0014648.5612526-.7508659 1.7347469-.5338535 2 .3554688l.3183594 1.0730591v.0001831c.046917.1581497.7508926 2.5311661.7109375 2.3964844.2153912.7282294-.3280125 1.458496-1.0888672 1.458496zm4.1582031.7539062c-.4990234 0-.9462891-.3339844-1.0888672-.8125-.0304508-.102581-1.3366032-4.5026283-1.2542725-4.2252808-.1017456-.3459473-.0363159-.7108765.1790771-1.0003052.566309-.7563553 1.7363834-.5246086 1.9990234.355957.029932.1009083.3482914 1.1741505.3183594 1.0732422l.93573 3.1507568c.2148877.7290803-.3294905 1.45813-1.0890502 1.45813zm3.709961-.7539062c-.4990234 0-.9462891-.3339844-1.0888672-.8125-.0808067-.2721786-1.0923252-3.6792469-1.0307007-3.4716797-.1014404-.3460083-.0361938-.7106323.1791382-1 .566309-.7563553 1.7363834-.5246086 1.9990234.355957.0299568.1009007 1.0984306 3.6997757 1.0304565 3.4708252.1020508.3463135-.3297138 1.4573975-1.0890502 1.4573975zm4.6201153-1.2109375c-.5600891.7539673-1.7348099.5308571-1.9990234-.3549805-.1462402-.4930534-.8621483-2.9067173-.8056641-2.7163086-.2157917-.7285595.3295326-1.4580078 1.0888672-1.4580078.4990234 0 .9462891.3339844 1.0888672.8120117l.8056641 2.7163086c.102539.3461914.0380858.7114258-.178711 1.0009766z"/><path d="m11.7843151 46.6758423c.1463833 0 51.5437164-.3272324 51.6572266-.328125 1.2395515-.0081978 2.1770668-1.1182289 1.9804726-2.3408203-1.0507813-6.5263672-4.3349648-14.3994141-10.4033241-16.921875-1.7421875-.7241211-3.6669922-1.1816406-5.7197266-1.3608398-.4169922-.0351563-.7763672.2695313-.8125.6821289s.2695313.7758789.6816406.8120117c1.9003906.1660156 3.6748047.5869141 5.2744141 1.2514648 5.5048828 2.2885742 8.5576172 9.9287109 9.4990234 15.7753906.0507126.3146973-.1889343.6002769-.5097656.6025391-.1587982.0010071-51.7621765.328125-51.6474609.328125-.348175 0-.6347656-.2819786-.6347656-.6342773v-2.9594727c0-.3496094.2851563-.6342773.6347656-.6342773h34.3056641c2.9638672 0 5.3759766-2.4116211 5.3759766-5.3759766 0-2.5368309-1.7893715-4.747385-4.2792969-5.2641602-.4072266-.0854492-.8027344.1757813-.8867188.5820313-.0839844.4052734.1767578.8022461.5820313.8867188 1.8121758.3762741 3.0839844 1.9878731 3.0839844 3.7954102 0 2.137207-1.7382813 3.8759766-3.8759766 3.8759766h-34.3056642c-1.1767578 0-2.1347656.9575195-2.1347656 2.1342773v2.9594727c0 1.1819647.9577303 2.1342772 2.1347656 2.1342772z"/></g></g></svg>